<svg xmlns="http://www.w3.org/2000/svg" xmlns:xlink="http://www.w3.org/1999/xlink" viewBox="0 0 300 300" width="300"
    height="300" preserveAspectRatio="xMidYMid meet"
    style="width: 100%; height: 100%; transform: translate3d(0px, 0px, 0px); content-visibility: visible;">
    <defs>
        <clipPath id="__lottie_element_98">
            <rect width="300" height="300" x="0" y="0"></rect>
        </clipPath>
        <clipPath id="__lottie_element_100">
            <path d="M0,0 L200,0 L200,100 L0,100z"></path>
        </clipPath>
        <clipPath id="__lottie_element_104">
            <path d="M0,0 L200,0 L200,100 L0,100z"></path>
        </clipPath>
        <clipPath id="__lottie_element_108">
            <path d="M0,0 L200,0 L200,100 L0,100z"></path>
        </clipPath>
        <clipPath id="__lottie_element_204">
            <path d="M0,0 L200,0 L200,100 L0,100z"></path>
        </clipPath>
        <clipPath id="__lottie_element_217">
            <path d="M0,0 L200,0 L200,100 L0,100z"></path>
        </clipPath>
    </defs>
    <g clip-path="url(#__lottie_element_98)">
        <g clip-path="url(#__lottie_element_100)"
            transform="matrix(0.5000045895576477,0,0,0.5000045895576477,99.99954223632812,61.49977111816406)"
            opacity="0" style="display: none;">
            <g transform="matrix(0.9300000071525574,0,0,0.9300000071525574,111.07476806640625,79.70477294921875)"
                opacity="1" style="display: block;">
                <g opacity="1" transform="matrix(1,0,0,1,-66.78900146484375,-32.78900146484375)">
                    <path fill="rgb(228,230,235)" fill-opacity="1"
                        d=" M19.211000442504883,-15.211000442504883 C19.211000442504883,-15.211000442504883 19.211000442504883,15.211000442504883 19.211000442504883,15.211000442504883 C19.211000442504883,17.41860008239746 17.41860008239746,19.211000442504883 15.211000442504883,19.211000442504883 C15.211000442504883,19.211000442504883 -15.211000442504883,19.211000442504883 -15.211000442504883,19.211000442504883 C-17.41860008239746,19.211000442504883 -19.211000442504883,17.41860008239746 -19.211000442504883,15.211000442504883 C-19.211000442504883,15.211000442504883 -19.211000442504883,-15.211000442504883 -19.211000442504883,-15.211000442504883 C-19.211000442504883,-17.41860008239746 -17.41860008239746,-19.211000442504883 -15.211000442504883,-19.211000442504883 C-15.211000442504883,-19.211000442504883 15.211000442504883,-19.211000442504883 15.211000442504883,-19.211000442504883 C17.41860008239746,-19.211000442504883 19.211000442504883,-17.41860008239746 19.211000442504883,-15.211000442504883z">
                    </path>
                </g>
            </g>
            <g transform="matrix(0.8500000238418579,0,0,0.7547599673271179,106.5,46.19914627075195)" opacity="1"
                style="display: block;">
                <g opacity="1" transform="matrix(1,0,0,1,12.630000114440918,-8.36400032043457)">
                    <path fill="rgb(240,242,245)" fill-opacity="1"
                        d=" M42.630001068115234,-5.135499954223633 C42.630001068115234,-5.135499954223633 42.630001068115234,5.135499954223633 42.630001068115234,5.135499954223633 C42.630001068115234,6.239299774169922 41.733802795410156,7.135499954223633 40.630001068115234,7.135499954223633 C40.630001068115234,7.135499954223633 -40.630001068115234,7.135499954223633 -40.630001068115234,7.135499954223633 C-41.733802795410156,7.135499954223633 -42.630001068115234,6.239299774169922 -42.630001068115234,5.135499954223633 C-42.630001068115234,5.135499954223633 -42.630001068115234,-5.135499954223633 -42.630001068115234,-5.135499954223633 C-42.630001068115234,-6.239299774169922 -41.733802795410156,-7.135499954223633 -40.630001068115234,-7.135499954223633 C-40.630001068115234,-7.135499954223633 40.630001068115234,-7.135499954223633 40.630001068115234,-7.135499954223633 C41.733802795410156,-7.135499954223633 42.630001068115234,-6.239299774169922 42.630001068115234,-5.135499954223633z">
                    </path>
                </g>
            </g>
            <g transform="matrix(1,0,0,0.7547599673271179,111,64.19915008544922)" opacity="1" style="display: block;">
                <g opacity="1" transform="matrix(1,0,0,1,12.630000114440918,-8.36400032043457)">
                    <path fill="rgb(240,242,245)" fill-opacity="1"
                        d=" M42.630001068115234,-5.135499954223633 C42.630001068115234,-5.135499954223633 42.630001068115234,5.135499954223633 42.630001068115234,5.135499954223633 C42.630001068115234,6.239299774169922 41.733802795410156,7.135499954223633 40.630001068115234,7.135499954223633 C40.630001068115234,7.135499954223633 -40.630001068115234,7.135499954223633 -40.630001068115234,7.135499954223633 C-41.733802795410156,7.135499954223633 -42.630001068115234,6.239299774169922 -42.630001068115234,5.135499954223633 C-42.630001068115234,5.135499954223633 -42.630001068115234,-5.135499954223633 -42.630001068115234,-5.135499954223633 C-42.630001068115234,-6.239299774169922 -41.733802795410156,-7.135499954223633 -40.630001068115234,-7.135499954223633 C-40.630001068115234,-7.135499954223633 40.630001068115234,-7.135499954223633 40.630001068115234,-7.135499954223633 C41.733802795410156,-7.135499954223633 42.630001068115234,-6.239299774169922 42.630001068115234,-5.135499954223633z">
                    </path>
                </g>
            </g>
        </g>
        <g clip-path="url(#__lottie_element_104)"
            transform="matrix(0.6123809218406677,0,0,0.6123809218406677,88.76190948486328,59.57741928100586)"
            opacity="0.23708571428571595" style="display: block;">
            <g transform="matrix(0.9300000071525574,0,0,0.9300000071525574,111.07476806640625,79.70477294921875)"
                opacity="1" style="display: block;">
                <g opacity="1" transform="matrix(1,0,0,1,-66.78900146484375,-32.78900146484375)">
                    <path fill="rgb(228,230,235)" fill-opacity="1"
                        d=" M19.211000442504883,-15.211000442504883 C19.211000442504883,-15.211000442504883 19.211000442504883,15.211000442504883 19.211000442504883,15.211000442504883 C19.211000442504883,17.41860008239746 17.41860008239746,19.211000442504883 15.211000442504883,19.211000442504883 C15.211000442504883,19.211000442504883 -15.211000442504883,19.211000442504883 -15.211000442504883,19.211000442504883 C-17.41860008239746,19.211000442504883 -19.211000442504883,17.41860008239746 -19.211000442504883,15.211000442504883 C-19.211000442504883,15.211000442504883 -19.211000442504883,-15.211000442504883 -19.211000442504883,-15.211000442504883 C-19.211000442504883,-17.41860008239746 -17.41860008239746,-19.211000442504883 -15.211000442504883,-19.211000442504883 C-15.211000442504883,-19.211000442504883 15.211000442504883,-19.211000442504883 15.211000442504883,-19.211000442504883 C17.41860008239746,-19.211000442504883 19.211000442504883,-17.41860008239746 19.211000442504883,-15.211000442504883z">
                    </path>
                </g>
            </g>
            <g transform="matrix(0.8500000238418579,0,0,0.7547599673271179,106.5,46.19914627075195)" opacity="1"
                style="display: block;">
                <g opacity="1" transform="matrix(1,0,0,1,12.630000114440918,-8.36400032043457)">
                    <path fill="rgb(240,242,245)" fill-opacity="1"
                        d=" M42.630001068115234,-5.135499954223633 C42.630001068115234,-5.135499954223633 42.630001068115234,5.135499954223633 42.630001068115234,5.135499954223633 C42.630001068115234,6.239299774169922 41.733802795410156,7.135499954223633 40.630001068115234,7.135499954223633 C40.630001068115234,7.135499954223633 -40.630001068115234,7.135499954223633 -40.630001068115234,7.135499954223633 C-41.733802795410156,7.135499954223633 -42.630001068115234,6.239299774169922 -42.630001068115234,5.135499954223633 C-42.630001068115234,5.135499954223633 -42.630001068115234,-5.135499954223633 -42.630001068115234,-5.135499954223633 C-42.630001068115234,-6.239299774169922 -41.733802795410156,-7.135499954223633 -40.630001068115234,-7.135499954223633 C-40.630001068115234,-7.135499954223633 40.630001068115234,-7.135499954223633 40.630001068115234,-7.135499954223633 C41.733802795410156,-7.135499954223633 42.630001068115234,-6.239299774169922 42.630001068115234,-5.135499954223633z">
                    </path>
                </g>
            </g>
            <g transform="matrix(1,0,0,0.7547599673271179,111,64.19915008544922)" opacity="1" style="display: block;">
                <g opacity="1" transform="matrix(1,0,0,1,12.630000114440918,-8.36400032043457)">
                    <path fill="rgb(240,242,245)" fill-opacity="1"
                        d=" M42.630001068115234,-5.135499954223633 C42.630001068115234,-5.135499954223633 42.630001068115234,5.135499954223633 42.630001068115234,5.135499954223633 C42.630001068115234,6.239299774169922 41.733802795410156,7.135499954223633 40.630001068115234,7.135499954223633 C40.630001068115234,7.135499954223633 -40.630001068115234,7.135499954223633 -40.630001068115234,7.135499954223633 C-41.733802795410156,7.135499954223633 -42.630001068115234,6.239299774169922 -42.630001068115234,5.135499954223633 C-42.630001068115234,5.135499954223633 -42.630001068115234,-5.135499954223633 -42.630001068115234,-5.135499954223633 C-42.630001068115234,-6.239299774169922 -41.733802795410156,-7.135499954223633 -40.630001068115234,-7.135499954223633 C-40.630001068115234,-7.135499954223633 40.630001068115234,-7.135499954223633 40.630001068115234,-7.135499954223633 C41.733802795410156,-7.135499954223633 42.630001068115234,-6.239299774169922 42.630001068115234,-5.135499954223633z">
                    </path>
                </g>
            </g>
        </g>
        <g clip-path="url(#__lottie_element_108)"
            transform="matrix(0.8108229041099548,0,0,0.8108229041099548,68.91770935058594,86.48054504394531)"
            opacity="0.7294857142857154" style="display: block;">
            <g transform="matrix(0.9299924373626709,0,0,0.9299924373626709,111.07426452636719,79.70452117919922)"
                opacity="1" style="display: block;">
                <g opacity="1" transform="matrix(1,0,0,1,-66.78900146484375,-32.78900146484375)">
                    <path fill="rgb(228,230,235)" fill-opacity="1"
                        d=" M19.211000442504883,-15.211000442504883 C19.211000442504883,-15.211000442504883 19.211000442504883,15.211000442504883 19.211000442504883,15.211000442504883 C19.211000442504883,17.41860008239746 17.41860008239746,19.211000442504883 15.211000442504883,19.211000442504883 C15.211000442504883,19.211000442504883 -15.211000442504883,19.211000442504883 -15.211000442504883,19.211000442504883 C-17.41860008239746,19.211000442504883 -19.211000442504883,17.41860008239746 -19.211000442504883,15.211000442504883 C-19.211000442504883,15.211000442504883 -19.211000442504883,-15.211000442504883 -19.211000442504883,-15.211000442504883 C-19.211000442504883,-17.41860008239746 -17.41860008239746,-19.211000442504883 -15.211000442504883,-19.211000442504883 C-15.211000442504883,-19.211000442504883 15.211000442504883,-19.211000442504883 15.211000442504883,-19.211000442504883 C17.41860008239746,-19.211000442504883 19.211000442504883,-17.41860008239746 19.211000442504883,-15.211000442504883z">
                    </path>
                </g>
            </g>
            <g transform="matrix(0.8500096201896667,0,0,0.7547599673271179,106.50028991699219,46.19914627075195)"
                opacity="1" style="display: block;">
                <g opacity="1" transform="matrix(1,0,0,1,12.630000114440918,-8.36400032043457)">
                    <path fill="rgb(240,242,245)" fill-opacity="1"
                        d=" M42.630001068115234,-5.135499954223633 C42.630001068115234,-5.135499954223633 42.630001068115234,5.135499954223633 42.630001068115234,5.135499954223633 C42.630001068115234,6.239299774169922 41.733802795410156,7.135499954223633 40.630001068115234,7.135499954223633 C40.630001068115234,7.135499954223633 -40.630001068115234,7.135499954223633 -40.630001068115234,7.135499954223633 C-41.733802795410156,7.135499954223633 -42.630001068115234,6.239299774169922 -42.630001068115234,5.135499954223633 C-42.630001068115234,5.135499954223633 -42.630001068115234,-5.135499954223633 -42.630001068115234,-5.135499954223633 C-42.630001068115234,-6.239299774169922 -41.733802795410156,-7.135499954223633 -40.630001068115234,-7.135499954223633 C-40.630001068115234,-7.135499954223633 40.630001068115234,-7.135499954223633 40.630001068115234,-7.135499954223633 C41.733802795410156,-7.135499954223633 42.630001068115234,-6.239299774169922 42.630001068115234,-5.135499954223633z">
                    </path>
                </g>
            </g>
            <g transform="matrix(1,0,0,0.7547599673271179,111,64.19915008544922)" opacity="1" style="display: block;">
                <g opacity="1" transform="matrix(1,0,0,1,12.630000114440918,-8.36400032043457)">
                    <path fill="rgb(240,242,245)" fill-opacity="1"
                        d=" M42.630001068115234,-5.135499954223633 C42.630001068115234,-5.135499954223633 42.630001068115234,5.135499954223633 42.630001068115234,5.135499954223633 C42.630001068115234,6.239299774169922 41.733802795410156,7.135499954223633 40.630001068115234,7.135499954223633 C40.630001068115234,7.135499954223633 -40.630001068115234,7.135499954223633 -40.630001068115234,7.135499954223633 C-41.733802795410156,7.135499954223633 -42.630001068115234,6.239299774169922 -42.630001068115234,5.135499954223633 C-42.630001068115234,5.135499954223633 -42.630001068115234,-5.135499954223633 -42.630001068115234,-5.135499954223633 C-42.630001068115234,-6.239299774169922 -41.733802795410156,-7.135499954223633 -40.630001068115234,-7.135499954223633 C-40.630001068115234,-7.135499954223633 40.630001068115234,-7.135499954223633 40.630001068115234,-7.135499954223633 C41.733802795410156,-7.135499954223633 42.630001068115234,-6.239299774169922 42.630001068115234,-5.135499954223633z">
                    </path>
                </g>
            </g>
        </g>
        <g clip-path="url(#__lottie_element_204)" transform="matrix(1,0,0,1,50,125)" opacity="1"
            style="display: block;">
            <g transform="matrix(0.9105477929115295,0,0,0.9105477929115295,109.77557373046875,79.06695556640625)"
                opacity="1" style="display: block;">
                <g opacity="1" transform="matrix(1,0,0,1,-66.78900146484375,-32.78900146484375)">
                    <path fill="rgb(228,230,235)" fill-opacity="1"
                        d=" M19.211000442504883,-15.211000442504883 C19.211000442504883,-15.211000442504883 19.211000442504883,15.211000442504883 19.211000442504883,15.211000442504883 C19.211000442504883,17.41860008239746 17.41860008239746,19.211000442504883 15.211000442504883,19.211000442504883 C15.211000442504883,19.211000442504883 -15.211000442504883,19.211000442504883 -15.211000442504883,19.211000442504883 C-17.41860008239746,19.211000442504883 -19.211000442504883,17.41860008239746 -19.211000442504883,15.211000442504883 C-19.211000442504883,15.211000442504883 -19.211000442504883,-15.211000442504883 -19.211000442504883,-15.211000442504883 C-19.211000442504883,-17.41860008239746 -17.41860008239746,-19.211000442504883 -15.211000442504883,-19.211000442504883 C-15.211000442504883,-19.211000442504883 15.211000442504883,-19.211000442504883 15.211000442504883,-19.211000442504883 C17.41860008239746,-19.211000442504883 19.211000442504883,-17.41860008239746 19.211000442504883,-15.211000442504883z">
                    </path>
                </g>
            </g>
            <g transform="matrix(0.5101184248924255,0,0,0.7547599673271179,96.30355072021484,46.19914627075195)"
                opacity="1" style="display: block;">
                <g opacity="1" transform="matrix(1,0,0,1,12.630000114440918,-8.36400032043457)">
                    <path fill="rgb(240,242,245)" fill-opacity="1"
                        d=" M42.630001068115234,-5.135499954223633 C42.630001068115234,-5.135499954223633 42.630001068115234,5.135499954223633 42.630001068115234,5.135499954223633 C42.630001068115234,6.239299774169922 41.733802795410156,7.135499954223633 40.630001068115234,7.135499954223633 C40.630001068115234,7.135499954223633 -40.630001068115234,7.135499954223633 -40.630001068115234,7.135499954223633 C-41.733802795410156,7.135499954223633 -42.630001068115234,6.239299774169922 -42.630001068115234,5.135499954223633 C-42.630001068115234,5.135499954223633 -42.630001068115234,-5.135499954223633 -42.630001068115234,-5.135499954223633 C-42.630001068115234,-6.239299774169922 -41.733802795410156,-7.135499954223633 -40.630001068115234,-7.135499954223633 C-40.630001068115234,-7.135499954223633 40.630001068115234,-7.135499954223633 40.630001068115234,-7.135499954223633 C41.733802795410156,-7.135499954223633 42.630001068115234,-6.239299774169922 42.630001068115234,-5.135499954223633z">
                    </path>
                </g>
            </g>
            <g transform="matrix(0.004905148409307003,0,0,0.7547599673271179,81.14715576171875,64.19915008544922)"
                opacity="1" style="display: block;">
                <g opacity="1" transform="matrix(1,0,0,1,12.630000114440918,-8.36400032043457)">
                    <path fill="rgb(240,242,245)" fill-opacity="1"
                        d=" M42.630001068115234,-5.135499954223633 C42.630001068115234,-5.135499954223633 42.630001068115234,5.135499954223633 42.630001068115234,5.135499954223633 C42.630001068115234,6.239299774169922 41.733802795410156,7.135499954223633 40.630001068115234,7.135499954223633 C40.630001068115234,7.135499954223633 -40.630001068115234,7.135499954223633 -40.630001068115234,7.135499954223633 C-41.733802795410156,7.135499954223633 -42.630001068115234,6.239299774169922 -42.630001068115234,5.135499954223633 C-42.630001068115234,5.135499954223633 -42.630001068115234,-5.135499954223633 -42.630001068115234,-5.135499954223633 C-42.630001068115234,-6.239299774169922 -41.733802795410156,-7.135499954223633 -40.630001068115234,-7.135499954223633 C-40.630001068115234,-7.135499954223633 40.630001068115234,-7.135499954223633 40.630001068115234,-7.135499954223633 C41.733802795410156,-7.135499954223633 42.630001068115234,-6.239299774169922 42.630001068115234,-5.135499954223633z">
                    </path>
                </g>
            </g>
        </g>
        <g clip-path="url(#__lottie_element_217)" transform="matrix(1,0,0,1,50,125)" opacity="1" style="display: none;">
            <g transform="matrix(0.9300000071525574,0,0,0.9300000071525574,111.07476806640625,79.70477294921875)"
                opacity="1" style="display: block;">
                <g opacity="1" transform="matrix(1,0,0,1,-66.78900146484375,-32.78900146484375)">
                    <path fill="rgb(228,230,235)" fill-opacity="1"
                        d=" M19.211000442504883,-15.211000442504883 C19.211000442504883,-15.211000442504883 19.211000442504883,15.211000442504883 19.211000442504883,15.211000442504883 C19.211000442504883,17.41860008239746 17.41860008239746,19.211000442504883 15.211000442504883,19.211000442504883 C15.211000442504883,19.211000442504883 -15.211000442504883,19.211000442504883 -15.211000442504883,19.211000442504883 C-17.41860008239746,19.211000442504883 -19.211000442504883,17.41860008239746 -19.211000442504883,15.211000442504883 C-19.211000442504883,15.211000442504883 -19.211000442504883,-15.211000442504883 -19.211000442504883,-15.211000442504883 C-19.211000442504883,-17.41860008239746 -17.41860008239746,-19.211000442504883 -15.211000442504883,-19.211000442504883 C-15.211000442504883,-19.211000442504883 15.211000442504883,-19.211000442504883 15.211000442504883,-19.211000442504883 C17.41860008239746,-19.211000442504883 19.211000442504883,-17.41860008239746 19.211000442504883,-15.211000442504883z">
                    </path>
                </g>
            </g>
            <g transform="matrix(0.8500000238418579,0,0,0.7547599673271179,106.5,46.19914627075195)" opacity="1"
                style="display: block;">
                <g opacity="1" transform="matrix(1,0,0,1,12.630000114440918,-8.36400032043457)">
                    <path fill="rgb(240,242,245)" fill-opacity="1"
                        d=" M42.630001068115234,-5.135499954223633 C42.630001068115234,-5.135499954223633 42.630001068115234,5.135499954223633 42.630001068115234,5.135499954223633 C42.630001068115234,6.239299774169922 41.733802795410156,7.135499954223633 40.630001068115234,7.135499954223633 C40.630001068115234,7.135499954223633 -40.630001068115234,7.135499954223633 -40.630001068115234,7.135499954223633 C-41.733802795410156,7.135499954223633 -42.630001068115234,6.239299774169922 -42.630001068115234,5.135499954223633 C-42.630001068115234,5.135499954223633 -42.630001068115234,-5.135499954223633 -42.630001068115234,-5.135499954223633 C-42.630001068115234,-6.239299774169922 -41.733802795410156,-7.135499954223633 -40.630001068115234,-7.135499954223633 C-40.630001068115234,-7.135499954223633 40.630001068115234,-7.135499954223633 40.630001068115234,-7.135499954223633 C41.733802795410156,-7.135499954223633 42.630001068115234,-6.239299774169922 42.630001068115234,-5.135499954223633z">
                    </path>
                </g>
            </g>
            <g transform="matrix(1,0,0,0.7547599673271179,111,64.19915008544922)" opacity="1" style="display: block;">
                <g opacity="1" transform="matrix(1,0,0,1,12.630000114440918,-8.36400032043457)">
                    <path fill="rgb(240,242,245)" fill-opacity="1"
                        d=" M42.630001068115234,-5.135499954223633 C42.630001068115234,-5.135499954223633 42.630001068115234,5.135499954223633 42.630001068115234,5.135499954223633 C42.630001068115234,6.239299774169922 41.733802795410156,7.135499954223633 40.630001068115234,7.135499954223633 C40.630001068115234,7.135499954223633 -40.630001068115234,7.135499954223633 -40.630001068115234,7.135499954223633 C-41.733802795410156,7.135499954223633 -42.630001068115234,6.239299774169922 -42.630001068115234,5.135499954223633 C-42.630001068115234,5.135499954223633 -42.630001068115234,-5.135499954223633 -42.630001068115234,-5.135499954223633 C-42.630001068115234,-6.239299774169922 -41.733802795410156,-7.135499954223633 -40.630001068115234,-7.135499954223633 C-40.630001068115234,-7.135499954223633 40.630001068115234,-7.135499954223633 40.630001068115234,-7.135499954223633 C41.733802795410156,-7.135499954223633 42.630001068115234,-6.239299774169922 42.630001068115234,-5.135499954223633z">
                    </path>
                </g>
            </g>
        </g>
    </g>
</svg>