<svg width="24" height="24" viewBox="0 0 24 24" fill="none" xmlns="http://www.w3.org/2000/svg">
<path d="M5.26904 9.74998C5.26779 8.86084 5.44246 7.98023 5.783 7.15888C6.12354 6.33753 6.62321 5.59167 7.25323 4.96426C7.88326 4.33685 8.63119 3.84028 9.45395 3.50317C10.2767 3.16605 11.158 2.99503 12.0472 2.99998C15.7597 3.02811 18.7315 6.11248 18.7315 9.83436V10.5C18.7315 13.8562 19.4347 15.8062 20.0534 16.875C20.1191 16.9888 20.1538 17.1179 20.1539 17.2493C20.154 17.3808 20.1196 17.5099 20.0541 17.6238C19.9886 17.7378 19.8943 17.8325 19.7806 17.8985C19.667 17.9645 19.538 17.9995 19.4065 18H4.59404C4.46261 17.9995 4.33361 17.9645 4.21996 17.8985C4.10632 17.8325 4.01201 17.7378 3.9465 17.6238C3.88099 17.5099 3.84656 17.3808 3.84668 17.2493C3.8468 17.1179 3.88145 16.9888 3.94716 16.875C4.56591 15.8062 5.26904 13.8562 5.26904 10.5V9.74998Z" stroke="white" stroke-width="1.5" stroke-linecap="round" stroke-linejoin="round"/>
<path d="M9 18V18.75C9 19.5456 9.31607 20.3087 9.87868 20.8713C10.4413 21.4339 11.2044 21.75 12 21.75C12.7956 21.75 13.5587 21.4339 14.1213 20.8713C14.6839 20.3087 15 19.5456 15 18.75V18" stroke="white" stroke-width="1.5" stroke-linecap="round" stroke-linejoin="round"/>
</svg>
