<svg width="24" height="24" viewBox="0 0 24 24" fill="none" xmlns="http://www.w3.org/2000/svg">
<path opacity="0.2" d="M4.5 9.00024H19.5V19.5002H4.5V9.00024Z" fill="#08619E" stroke="#08619E" stroke-width="1.5"/>
<path d="M19.5 8.25024H4.5C4.08579 8.25024 3.75 8.58603 3.75 9.00024V19.5002C3.75 19.9145 4.08579 20.2502 4.5 20.2502H19.5C19.9142 20.2502 20.25 19.9145 20.25 19.5002V9.00024C20.25 8.58603 19.9142 8.25024 19.5 8.25024Z" stroke="#08619E" stroke-width="1.5" stroke-linecap="round" stroke-linejoin="round"/>
<path d="M8.625 8.25024V4.87524C8.625 3.98014 8.98058 3.12169 9.61351 2.48876C10.2465 1.85582 11.1049 1.50024 12 1.50024C12.8951 1.50024 13.7535 1.85582 14.3865 2.48876C15.0194 3.12169 15.375 3.98014 15.375 4.87524V8.25024" stroke="#08619E" stroke-width="1.5" stroke-linecap="round" stroke-linejoin="round"/>
</svg>
