<svg width="16" height="16" viewBox="0 0 16 16" fill="none" xmlns="http://www.w3.org/2000/svg">
<path d="M6 0.5H10C10.9387 0.5 11.6177 0.500271 12.1546 0.5369C12.6204 0.568683 12.9512 0.626555 13.2252 0.722792C13.2643 0.736541 13.3023 0.751072 13.3394 0.766422C14.197 1.12165 14.8784 1.80301 15.2336 2.66061C15.3564 2.95707 15.4268 3.31304 15.4631 3.84541C15.4997 4.38227 15.5 5.06128 15.5 6V10C15.5 10.8214 15.4998 11.4439 15.4752 11.9464C15.4717 12.0182 15.4677 12.0875 15.4631 12.1546C15.4313 12.6204 15.3734 12.9512 15.2772 13.2252C15.2635 13.2643 15.2489 13.3023 15.2336 13.3394C14.8784 14.197 14.197 14.8784 13.3394 15.2336C13.0429 15.3564 12.687 15.4268 12.1546 15.4631C11.6177 15.4997 10.9387 15.5 10 15.5H6C5.17862 15.5 4.55608 15.4998 4.05363 15.4752C3.98185 15.4717 3.91252 15.4677 3.84541 15.4631C3.37959 15.4313 3.04882 15.3734 2.7748 15.2772C2.73565 15.2635 2.69767 15.2489 2.66061 15.2336C1.80301 14.8784 1.12165 14.197 0.766422 13.3394C0.643622 13.0429 0.573224 12.687 0.5369 12.1546C0.500271 11.6177 0.5 10.9387 0.5 10V6C0.5 5.06128 0.500271 4.38227 0.5369 3.84541C0.568683 3.37959 0.626555 3.04882 0.722792 2.7748C0.736541 2.73565 0.751072 2.69767 0.766422 2.66061C1.12165 1.80301 1.80301 1.12165 2.66061 0.766422C2.95707 0.643622 3.31304 0.573224 3.84541 0.5369C4.38227 0.500271 5.06128 0.5 6 0.5Z" stroke="#637381"/>
</svg>
