<svg width="25" height="24" viewBox="0 0 25 24" fill="none" xmlns="http://www.w3.org/2000/svg">
<path opacity="0.2" d="M1.58431 13.1624L5.11869 16.4718C5.58995 16.9136 6.19123 17.1914 6.83309 17.2641C7.47495 17.3367 8.12311 17.2002 8.68118 16.8749L22.8749 8.6249L21.1312 6.4874C20.6776 5.9334 20.0408 5.55991 19.3359 5.4344C18.6309 5.30889 17.9044 5.43964 17.2874 5.80303L13.1249 8.2499L7.49993 6.3749L5.95306 7.04053C5.83733 7.09012 5.73595 7.16805 5.65827 7.26714C5.58058 7.36622 5.52909 7.48327 5.50854 7.60749C5.488 7.73171 5.49905 7.85911 5.54069 7.97793C5.58233 8.09675 5.65322 8.20318 5.74681 8.2874L8.62493 10.8749L5.99994 12.3749L3.37494 11.2499L1.79994 11.9249C1.68535 11.9741 1.58484 12.0511 1.50752 12.149C1.43019 12.2468 1.37849 12.3624 1.35708 12.4853C1.33567 12.6081 1.34524 12.7344 1.38492 12.8526C1.42459 12.9709 1.49312 13.0773 1.58431 13.1624V13.1624Z" fill="#08619E" stroke="#08619E" stroke-width="1.5"/>
<path d="M2.25 20.25H15.75" stroke="#08619E" stroke-width="1.5" stroke-linecap="round" stroke-linejoin="round"/>
<path d="M1.58431 13.1624L5.11869 16.4718C5.58995 16.9136 6.19123 17.1914 6.83309 17.2641C7.47495 17.3367 8.12311 17.2002 8.68118 16.8749L22.8749 8.6249L21.1312 6.4874C20.6776 5.9334 20.0408 5.55991 19.3359 5.4344C18.6309 5.30889 17.9044 5.43964 17.2874 5.80303L13.1249 8.2499L7.49993 6.3749L5.95306 7.04053C5.83733 7.09012 5.73595 7.16805 5.65827 7.26714C5.58058 7.36622 5.52909 7.48327 5.50854 7.60749C5.488 7.73171 5.49905 7.85911 5.54069 7.97793C5.58233 8.09675 5.65322 8.20318 5.74681 8.2874L8.62493 10.8749L5.99994 12.3749L3.37494 11.2499L1.79994 11.9249C1.68535 11.9741 1.58484 12.0511 1.50752 12.149C1.43019 12.2468 1.37849 12.3624 1.35708 12.4853C1.33567 12.6081 1.34524 12.7344 1.38492 12.8526C1.42459 12.9709 1.49312 13.0773 1.58431 13.1624V13.1624Z" stroke="#08619E" stroke-width="1.5" stroke-linecap="round" stroke-linejoin="round"/>
</svg>
