<svg width="24" height="24" viewBox="0 0 24 24" fill="none" xmlns="http://www.w3.org/2000/svg">
<g clip-path="url(#clip0_1_24037)">
<path opacity="0.2" d="M4.125 4.125V18.375L5.625 19.875H19.875V4.125H4.125Z" fill="#08619E" stroke="#08619E" stroke-width="1.5"/>
<path d="M4.125 13.4344V4.875C4.125 4.67609 4.20402 4.48532 4.34467 4.34467C4.48532 4.20402 4.67609 4.125 4.875 4.125H19.125C19.3239 4.125 19.5147 4.20402 19.6553 4.34467C19.796 4.48532 19.875 4.67609 19.875 4.875V19.125C19.875 19.3239 19.796 19.5147 19.6553 19.6553C19.5147 19.796 19.3239 19.875 19.125 19.875H12.7125" stroke="#08619E" stroke-width="1.5" stroke-linecap="round" stroke-linejoin="round"/>
<path d="M12 14.25L6 20.25L3 17.25" stroke="#08619E" stroke-width="1.5" stroke-linecap="round" stroke-linejoin="round"/>
</g>
<defs>
<clipPath id="clip0_1_24037">
<rect width="24" height="24" fill="white"/>
</clipPath>
</defs>
</svg>
