<svg width="24" height="24" viewBox="0 0 24 24" fill="none" xmlns="http://www.w3.org/2000/svg">
<path opacity="0.2" d="M7.5 15.75H3C2.80109 15.75 2.61032 15.671 2.46967 15.5303C2.32902 15.3897 2.25 15.1989 2.25 15V9C2.25 8.80109 2.32902 8.61032 2.46967 8.46967C2.61032 8.32902 2.80109 8.25 3 8.25H7.5V15.75Z" fill="#08619E" stroke="#08619E" stroke-width="1.5"/>
<path d="M20.522 7.22803C21.1496 7.85416 21.6475 8.59793 21.9872 9.41676C22.3269 10.2356 22.5018 11.1134 22.5018 11.9999C22.5018 12.8864 22.3269 13.7642 21.9872 14.583C21.6475 15.4019 21.1496 16.1456 20.522 16.7718" stroke="#08619E" stroke-width="1.5" stroke-linecap="round" stroke-linejoin="round"/>
<path d="M7.5 15.75H3C2.80109 15.75 2.61032 15.671 2.46967 15.5303C2.32902 15.3897 2.25 15.1989 2.25 15V9C2.25 8.80109 2.32902 8.61032 2.46967 8.46967C2.61032 8.32902 2.80109 8.25 3 8.25H7.5L14.25 3V21L7.5 15.75Z" stroke="#08619E" stroke-width="1.5" stroke-linecap="round" stroke-linejoin="round"/>
<path d="M7.5 8.25V15.75" stroke="#08619E" stroke-width="1.5" stroke-linecap="round" stroke-linejoin="round"/>
<path d="M17.8687 9.88135C18.1476 10.1592 18.3689 10.4894 18.5199 10.853C18.6709 11.2166 18.7486 11.6064 18.7486 12.0001C18.7486 12.3938 18.6709 12.7836 18.5199 13.1472C18.3689 13.5108 18.1476 13.841 17.8687 14.1188" stroke="#08619E" stroke-width="1.5" stroke-linecap="round" stroke-linejoin="round"/>
</svg>
