<svg width="24" height="24" viewBox="0 0 24 24" fill="none" xmlns="http://www.w3.org/2000/svg">
<path opacity="0.2" d="M14.5 7.50024H14.5031H21V15.7502H19.5V10.5002C19.5 10.1024 19.342 9.72089 19.0607 9.43958C18.7794 9.15828 18.3978 9.00024 18 9.00024H11.5059C11.5041 9.00018 11.5023 8.99958 11.5008 8.99853C11.5008 8.99849 11.5007 8.99844 11.5007 8.9984L8.89618 7.04973L8.89619 7.04972L8.8944 7.0484C8.63574 6.85606 8.3223 6.75158 7.99996 6.75025V6.75024H7.99688H6.75L6.75 5.25024L10.9941 5.25024C10.9959 5.25031 10.9977 5.25091 10.9992 5.25196C10.9992 5.252 10.9993 5.25205 10.9993 5.25209L13.6038 7.20076L13.6056 7.20209C13.8643 7.39443 14.1777 7.49891 14.5 7.50024Z" fill="#08619E" stroke="#08619E" stroke-width="1.5"/>
<path d="M18.75 10.5002V18.8346C18.75 19.0112 18.6799 19.1805 18.555 19.3053C18.4302 19.4301 18.2609 19.5002 18.0844 19.5002H3.75C3.55109 19.5002 3.36032 19.4212 3.21967 19.2806C3.07902 19.1399 3 18.9492 3 18.7502V8.25024C3 8.05133 3.07902 7.86057 3.21967 7.71991C3.36032 7.57926 3.55109 7.50024 3.75 7.50024H7.99688C8.15904 7.50091 8.31674 7.55348 8.44687 7.65024L11.0531 9.60024C11.1833 9.69701 11.341 9.74958 11.5031 9.75024H18C18.1989 9.75024 18.3897 9.82926 18.5303 9.96991C18.671 10.1106 18.75 10.3013 18.75 10.5002Z" stroke="#08619E" stroke-width="1.5" stroke-linecap="round" stroke-linejoin="round"/>
<path d="M6 7.50024V5.25024C6 5.05133 6.07902 4.86057 6.21967 4.71991C6.36032 4.57926 6.55109 4.50024 6.75 4.50024H10.9969C11.159 4.50091 11.3167 4.55348 11.4469 4.65024L14.0531 6.60024C14.1833 6.69701 14.341 6.74958 14.5031 6.75024H21C21.1989 6.75024 21.3897 6.82926 21.5303 6.96991C21.671 7.11057 21.75 7.30133 21.75 7.50024V15.8346C21.75 16.0112 21.6799 16.1805 21.555 16.3053C21.4302 16.4301 21.2609 16.5002 21.0844 16.5002H18.75" stroke="#08619E" stroke-width="1.5" stroke-linecap="round" stroke-linejoin="round"/>
</svg>
