<svg width="32" height="32" viewBox="0 0 32 32" fill="none" xmlns="http://www.w3.org/2000/svg">
<rect width="32" height="32" rx="6" fill="#4378FF"/>
<path d="M11.5114 14.5755C11.5114 15.0389 11.3979 15.4644 11.1707 15.8519C10.9435 16.2317 10.5946 16.5394 10.124 16.7749C9.65335 17.0104 9.06915 17.1282 8.37135 17.1282H7.08123V20H5V12H8.37135C9.05292 12 9.62901 12.1102 10.0996 12.3305C10.5702 12.5508 10.9232 12.8547 11.1585 13.2422C11.3938 13.6296 11.5114 14.0741 11.5114 14.5755ZM8.21313 15.5783C8.61071 15.5783 8.90687 15.491 9.1016 15.3162C9.29634 15.1415 9.39371 14.8946 9.39371 14.5755C9.39371 14.2564 9.29634 14.0095 9.1016 13.8348C8.90687 13.66 8.61071 13.5726 8.21313 13.5726H7.08123V15.5783H8.21313Z" fill="white"/>
<path d="M15.7959 12C16.6965 12 17.4836 12.1671 18.1571 12.5014C18.8305 12.8357 19.3498 13.3067 19.7149 13.9145C20.0882 14.5147 20.2748 15.2099 20.2748 16C20.2748 16.7825 20.0882 17.4777 19.7149 18.0855C19.3498 18.6933 18.8265 19.1643 18.1449 19.4986C17.4714 19.8329 16.6884 20 15.7959 20H12.5949V12H15.7959ZM15.662 18.3134C16.4491 18.3134 17.0617 18.1121 17.4998 17.7094C17.938 17.3067 18.1571 16.7369 18.1571 16C18.1571 15.2631 17.938 14.6895 17.4998 14.2792C17.0617 13.8689 16.4491 13.6638 15.662 13.6638H14.6762V18.3134H15.662Z" fill="white"/>
<path d="M27 12V13.5613H23.5191V15.2479H26.1237V16.7635H23.5191V20H21.4379V12H27Z" fill="white"/>
</svg>
