<svg width="24" height="24" viewBox="0 0 24 24" fill="none" xmlns="http://www.w3.org/2000/svg">
<path opacity="0.2" d="M5.83205 17.4825C4.93409 16.4727 4.29464 15.2539 3.97619 13.931C3.5855 12.308 3.69637 10.6047 4.29413 9.04607C4.89189 7.48742 5.94843 6.14677 7.32417 5.20124C8.69992 4.2557 10.3301 3.74976 11.9995 3.75024L11.9999 3.75024C13.6693 3.74976 15.2995 4.2557 16.6752 5.20124C18.051 6.14677 19.1075 7.48742 19.7053 9.04607C20.303 10.6047 20.4139 12.308 20.0232 13.931C19.7048 15.2539 19.0653 16.4727 18.1674 17.4825C17.5769 16.6292 16.8136 15.9046 15.9229 15.358C15.5586 15.1344 15.1773 14.9433 14.7835 14.7859C14.9224 14.6765 15.0554 14.5585 15.1817 14.4322C16.0256 13.5883 16.4997 12.4437 16.4997 11.2502C16.4997 10.3602 16.2358 9.4902 15.7413 8.75018C15.2469 8.01016 14.544 7.43338 13.7218 7.09279C12.8995 6.75219 11.9947 6.66308 11.1218 6.83671C10.2489 7.01034 9.44706 7.43893 8.81772 8.06826C8.18839 8.6976 7.7598 9.49942 7.58617 10.3723C7.41253 11.2453 7.50165 12.1501 7.84224 12.9723C8.13799 13.6863 8.61181 14.3102 9.21595 14.7859C8.82215 14.9433 8.44085 15.1344 8.07646 15.358C7.18582 15.9046 6.4225 16.6292 5.83205 17.4825ZM14.121 13.3716C13.5584 13.9342 12.7954 14.2502 11.9997 14.2502L10.333 13.7447C9.83964 13.415 9.45513 12.9465 9.22806 12.3983C9.001 11.8501 8.94159 11.2469 9.05735 10.665C9.1731 10.083 9.45882 9.54848 9.87838 9.12892C10.2979 8.70937 10.8325 8.42364 11.4144 8.30789C11.9964 8.19213 12.5996 8.25154 13.1478 8.47861C13.6959 8.70567 14.1645 9.09019 14.4941 9.58353C14.8238 10.0769 14.9997 10.6569 14.9997 11.2502C14.9997 12.0459 14.6836 12.809 14.121 13.3716Z" fill="#08619E" stroke="#08619E" stroke-width="1.5"/>
<path d="M12 21.0002C16.9706 21.0002 21 16.9708 21 12.0002C21 7.02968 16.9706 3.00024 12 3.00024C7.02944 3.00024 3 7.02968 3 12.0002C3 16.9708 7.02944 21.0002 12 21.0002Z" stroke="#08619E" stroke-width="1.5" stroke-linecap="round" stroke-linejoin="round"/>
<path d="M12 15.0002C14.0711 15.0002 15.75 13.3213 15.75 11.2502C15.75 9.17918 14.0711 7.50024 12 7.50024C9.92893 7.50024 8.25 9.17918 8.25 11.2502C8.25 13.3213 9.92893 15.0002 12 15.0002Z" stroke="#08619E" stroke-width="1.5" stroke-linecap="round" stroke-linejoin="round"/>
<path d="M5.98096 18.6938C6.54525 17.5824 7.40629 16.6488 8.46865 15.9968C9.53101 15.3447 10.7532 14.9995 11.9997 14.9995C13.2462 14.9995 14.4684 15.3447 15.5308 15.9968C16.5931 16.6488 17.4542 17.5824 18.0185 18.6938" stroke="#08619E" stroke-width="1.5" stroke-linecap="round" stroke-linejoin="round"/>
</svg>
