<svg width="24" height="24" viewBox="0 0 24 24" fill="none" xmlns="http://www.w3.org/2000/svg">
<path d="M4.5 3.75L19.5 20.25" stroke="#919EAB" stroke-width="1.5" stroke-linecap="round" stroke-linejoin="round"/>
<path d="M14.5222 14.7751C13.834 15.4055 12.9336 15.7536 12.0003 15.7501C11.2435 15.75 10.5043 15.5209 9.88009 15.0929C9.25585 14.6649 8.77575 14.058 8.50289 13.352C8.23004 12.646 8.17719 11.874 8.35131 11.1374C8.52543 10.4008 8.91837 9.73418 9.47846 9.2251" stroke="#919EAB" stroke-width="1.5" stroke-linecap="round" stroke-linejoin="round"/>
<path d="M6.9375 6.43115C3.1125 8.3624 1.5 11.9999 1.5 11.9999C1.5 11.9999 4.5 18.7499 12 18.7499C13.7574 18.7642 15.4929 18.3593 17.0625 17.5687" stroke="#919EAB" stroke-width="1.5" stroke-linecap="round" stroke-linejoin="round"/>
<path d="M19.556 15.8531C21.5997 14.025 22.4997 12 22.4997 12C22.4997 12 19.4997 5.25002 11.9997 5.25002C11.3495 5.24874 10.7004 5.30205 10.0591 5.4094" stroke="#919EAB" stroke-width="1.5" stroke-linecap="round" stroke-linejoin="round"/>
<path d="M12.7031 8.31543C13.5006 8.46653 14.2273 8.87293 14.7735 9.47329C15.3198 10.0736 15.6559 10.8354 15.7313 11.6436" stroke="#919EAB" stroke-width="1.5" stroke-linecap="round" stroke-linejoin="round"/>
</svg>
