<svg width="36" height="36" viewBox="0 0 36 36" fill="none" xmlns="http://www.w3.org/2000/svg">
<path opacity="0.2" d="M16.0593 5.62487L3.68426 26.9999C3.48712 27.3413 3.38316 27.7286 3.38281 28.1229C3.38246 28.5172 3.48573 28.9046 3.68227 29.2464C3.87881 29.5883 4.16173 29.8724 4.50267 30.0705C4.84361 30.2685 5.2306 30.3735 5.62489 30.3749H30.3749C30.7692 30.3735 31.1562 30.2685 31.4971 30.0705C31.8381 29.8724 32.121 29.5883 32.3175 29.2464C32.514 28.9046 32.6173 28.5172 32.617 28.1229C32.6166 27.7286 32.5127 27.3413 32.3155 26.9999L19.9405 5.62487C19.7448 5.28296 19.4623 4.99882 19.1215 4.8012C18.7808 4.60359 18.3938 4.49951 17.9999 4.49951C17.606 4.49951 17.219 4.60359 16.8782 4.8012C16.5375 4.99882 16.2549 5.28296 16.0593 5.62487Z" fill="#DA5850"/>
<path d="M18 15.75V20.25" stroke="#DA5850" stroke-width="2" stroke-linecap="round" stroke-linejoin="round"/>
<path d="M16.0593 5.62487L3.68426 26.9999C3.48712 27.3413 3.38316 27.7286 3.38281 28.1229C3.38246 28.5172 3.48573 28.9046 3.68227 29.2464C3.87881 29.5883 4.16173 29.8724 4.50267 30.0705C4.84361 30.2685 5.2306 30.3735 5.62489 30.3749H30.3749C30.7692 30.3735 31.1562 30.2685 31.4971 30.0705C31.8381 29.8724 32.121 29.5883 32.3175 29.2464C32.514 28.9046 32.6173 28.5172 32.617 28.1229C32.6166 27.7286 32.5127 27.3413 32.3155 26.9999L19.9405 5.62487C19.7448 5.28296 19.4623 4.99882 19.1215 4.8012C18.7808 4.60359 18.3938 4.49951 17.9999 4.49951C17.606 4.49951 17.219 4.60359 16.8782 4.8012C16.5375 4.99882 16.2549 5.28296 16.0593 5.62487V5.62487Z" stroke="#DA5850" stroke-width="2" stroke-linecap="round" stroke-linejoin="round"/>
<path d="M18 27C18.932 27 19.6875 26.2445 19.6875 25.3125C19.6875 24.3805 18.932 23.625 18 23.625C17.068 23.625 16.3125 24.3805 16.3125 25.3125C16.3125 26.2445 17.068 27 18 27Z" fill="#DA5850"/>
</svg>
